#!OML:ASF X:\für Bonn\!DataBase\2005_08_12_Daniel\c3d\Daniel.ASF
:FULLY-SPECIFIED
:DEGREES
17
root 0.0967934 16.5127 -1.54721 -2.98508 -87.3794 -11.699
lowerback 27.9333 -2.19249 6.32241
upperback 0.417216 -1.37298 -2.49426
thorax -14.6523 -1.21206 -5.65267
lowerneck 7.99148 1.38604 -1.99629
upperneck 3.80054 1.54875 2.10628
head -0.18483 0.683558 0.939916
rclavicle -6.27414e-015 -2.38542e-015
rhumerus 53.1618 3.63889 -91.5242
rradius 7.86173
rwrist 51.4393
rhand -19.2004 7.05364
rfingers 7.12502
rthumb 7.11175 -22.8069
lclavicle -6.27414e-015 -2.38542e-015
lhumerus 55.0109 11.1297 103.707
lradius 10.2326
lwrist -80.4258
lhand -16.549 -0.0782404
lfingers 7.12502
lthumb 9.67048 29.6798
rfemur 1.9353 -1.96223 17.524
rtibia 38.0296
rfoot -29.1228 -0.68266
rtoes -16.1871
lfemur -9.67169 -3.84613 -12.6119
ltibia 49.1376
lfoot -30.0778 1.78015
ltoes 4.33315
18
root 0.100896 16.4576 -1.53282 1.78557 -87.1546 -16.6625
lowerback 28.116 -2.3664 6.62516
upperback 0.569286 -1.49031 -2.42637
thorax -14.5797 -1.27798 -5.69256
lowerneck 8.01331 1.3705 -1.81253
upperneck 3.6563 1.54865 1.95808
head -0.229369 0.688112 0.862335
rclavicle 5.51006e-015 8.34896e-015
rhumerus 53.1297 3.67085 -91.4809
rradius 8.05835
rwrist 51.3102
rhand -19.3119 6.97438
rfingers 7.12502
rthumb 7.0041 -22.8897
lclavicle 5.51006e-015 8.34896e-015
lhumerus 55.0373 11.1152 103.774
lradius 10.2833
lwrist -80.2725
lhand -16.5762 -0.113046
lfingers 7.12502
lthumb 9.64429 29.6462
rfemur 1.51496 -2.87578 17.3996
rtibia 39.1196
rfoot -29.2551 0.0466354
rtoes -16.2738
lfemur -9.93359 -3.87246 -12.3548
ltibia 50.0578
lfoot -30.2076 1.69248
ltoes 3.8632
19
root 0.106463 16.4012 -1.51924 7.27732 -86.8854 -22.2775
lowerback 28.2558 -2.54418 7.01231
upperback 0.692703 -1.58224 -2.33936
thorax -14.5171 -1.3378 -5.76823
lowerneck 8.02584 1.33414 -1.63661
upperneck 3.54564 1.51923 1.80243
head -0.261441 0.677763 0.78487
rclavicle 2.39473e-015 5.1684e-015
rhumerus 53.0922 3.6583 -91.4199
rradius 8.23018
rwrist 51.2717
rhand -19.3861 6.87347
rfingers 7.12502
rthumb 6.93242 -22.993
lclavicle 2.39473e-015 5.1684e-015
lhumerus 55.0607 11.1186 103.98
lradius 10.3405
lwrist -80.1941
lhand -16.4698 -0.175774
lfingers 7.12502
lthumb 9.74695 29.5787
rfemur 0.974777 -3.76804 17.3837
rtibia 40.2712
rfoot -29.2748 0.708713
rtoes -16.2921
lfemur -10.3627 -3.84708 -11.9781
ltibia 51.0418
lfoot -30.3332 1.57376
ltoes 3.28757
20
root 0.111973 16.3433 -1.50795 12.8749 -86.5855 -27.9778
lowerback 28.379 -2.72531 7.41878
upperback 0.821357 -1.6695 -2.22766
thorax -14.4389 -1.39483 -5.82848
lowerneck 8.01104 1.30179 -1.43682
upperneck 3.4167 1.49854 1.61158
head -0.294274 0.672819 0.692627
rclavicle 3.22559e-015 -7.55382e-015
rhumerus 53.0826 3.65518 -91.3548
rradius 8.39717
rwrist 51.2575
rhand -19.4364 6.75152
rfingers 7.12502
rthumb 6.88386 -23.1166
lclavicle 3.22559e-015 -7.55382e-015
lhumerus 55.0582 10.9857 103.955
lradius 10.4221
lwrist -79.7557
lhand -16.2496 -0.235972
lfingers 7.12502
lthumb 9.95935 29.5084
rfemur 0.358286 -4.59828 17.4615
rtibia 41.5205
rfoot -29.2361 1.35961
rtoes -16.3015
lfemur -10.8836 -3.73895 -11.4912
ltibia 52.0637
lfoot -30.3862 1.37447
ltoes 2.61397
21
root 0.118026 16.2813 -1.49965 16.7184 -86.2718 -31.9759
lowerback 28.5918 -2.89601 7.75191
upperback 0.938293 -1.76189 -2.13009
thorax -14.4162 -1.45188 -5.85971
lowerneck 8.05725 1.2671 -1.30459
upperneck 3.25713 1.46807 1.45146
head -0.347857 0.661632 0.621548
rclavicle -7.07549e-015 -1.23246e-014
rhumerus 53.0618 3.64815 -91.3053
rradius 8.51399
rwrist 51.3127
rhand -19.4914 6.59855
rfingers 7.12502
rthumb 6.83077 -23.2713
lclavicle -7.07549e-015 -1.23246e-014
lhumerus 55.0549 10.8081 103.861
lradius 10.449
lwrist -79.2829
lhand -15.9149 -0.257434
lfingers 7.12502
lthumb 10.2823 29.4712
rfemur -0.274326 -5.40981 17.4949
rtibia 42.8992
rfoot -29.2363 2.00067
rtoes -16.2676
lfemur -11.4006 -3.56381 -11.0247
ltibia 53.1179
lfoot -30.4304 1.24605
ltoes 1.61471
